<svg xmlns="http://www.w3.org/2000/svg" width="1600" height="900" viewBox="0 0 1600 900">
  <defs><marker id="arrow" viewBox="0 0 10 10" refX="9" refY="5" markerWidth="8" markerHeight="8" orient="auto-start-reverse"><path d="M 0 0 L 10 5 L 0 10 z" fill="#64748b"/></marker></defs>
  <rect width="1600" height="900" fill="#f8fafc"/>
  <text x="60" y="70" font-size="46" font-weight="800" fill="#0f172a">K3s auf Proxmox – Teil I</text>
  <text x="60" y="112" font-size="25" fill="#475569">Blog-Staging mit Cloudflare Tunnel</text>
  <rect x="60" y="145" width="1480" height="82" rx="20" fill="#fff7ed" stroke="#fdba74" stroke-width="2"/>
  <text x="90" y="180" font-size="24" font-weight="800" fill="#c2410c">Ziel</text>
  <text x="90" y="210" font-size="25" fill="#334155">Eine K3s-Staging-Umgebung auf Proxmox bauen und den Blog ohne eingehende Portfreigabe öffentlich testen.</text>
  <text x="60" y="274" font-size="30" font-weight="800" fill="#0f172a">Architektur</text>
  <g><rect x="60" y="310" width="220" height="180" rx="18" fill="#fff" stroke="#cbd5e1" stroke-width="2"/><rect x="60" y="310" width="8" height="180" rx="4" fill="#ff5a00"/><text x="82" y="346" font-size="26" font-weight="700" fill="#0f172a">GHCR</text><text x="82" y="374" font-size="22" fill="#334155">private Images</text><text x="82" y="402" font-size="22" fill="#334155">Blog + Kernel Grep</text></g><g><rect x="330" y="310" width="220" height="180" rx="18" fill="#fff" stroke="#cbd5e1" stroke-width="2"/><rect x="330" y="310" width="8" height="180" rx="4" fill="#ff5a00"/><text x="352" y="346" font-size="26" font-weight="700" fill="#0f172a">Proxmox</text><text x="352" y="374" font-size="22" fill="#334155">wgz-pve-01</text><text x="352" y="402" font-size="22" fill="#334155">interner Service-Bereich</text></g><g><rect x="600" y="310" width="230" height="180" rx="18" fill="#fff" stroke="#cbd5e1" stroke-width="2"/><rect x="600" y="310" width="8" height="180" rx="4" fill="#ff5a00"/><text x="622" y="346" font-size="26" font-weight="700" fill="#0f172a">VM k3s-blog-01</text><text x="622" y="374" font-size="22" fill="#334155">Debian 13</text><text x="622" y="402" font-size="22" fill="#334155">2 vCPU / 4 GB RAM</text></g><g><rect x="880" y="292" width="300" height="216" rx="18" fill="#fff" stroke="#cbd5e1" stroke-width="2"/><rect x="880" y="292" width="8" height="216" rx="4" fill="#ff5a00"/><text x="902" y="328" font-size="26" font-weight="700" fill="#0f172a">K3s</text><text x="902" y="356" font-size="22" fill="#334155">blog-staging: Blog</text><text x="902" y="384" font-size="22" fill="#334155">blog-staging: Kernel Grep</text><text x="902" y="412" font-size="22" fill="#334155">nur ClusterIP</text></g><g><rect x="1230" y="310" width="180" height="180" rx="18" fill="#fff" stroke="#cbd5e1" stroke-width="2"/><rect x="1230" y="310" width="8" height="180" rx="4" fill="#ff5a00"/><text x="1252" y="346" font-size="26" font-weight="700" fill="#0f172a">cloudflared</text><text x="1252" y="374" font-size="22" fill="#334155">outbound only</text><text x="1252" y="402" font-size="22" fill="#334155">Namespace cloudflare</text></g><g><rect x="1440" y="330" width="120" height="140" rx="18" fill="#fff" stroke="#cbd5e1" stroke-width="2"/><rect x="1440" y="330" width="8" height="140" rx="4" fill="#ff5a00"/><text x="1462" y="366" font-size="26" font-weight="700" fill="#0f172a">Public</text><text x="1462" y="394" font-size="22" fill="#334155">staging-</text><text x="1462" y="422" font-size="22" fill="#334155">blog.obivan.org</text></g><line x1="280" y1="400" x2="330" y2="400" stroke="#64748b" stroke-width="4" marker-end="url(#arrow)"/><line x1="550" y1="400" x2="600" y2="400" stroke="#64748b" stroke-width="4" marker-end="url(#arrow)"/><line x1="830" y1="400" x2="880" y2="400" stroke="#64748b" stroke-width="4" marker-end="url(#arrow)"/><line x1="1180" y1="400" x2="1230" y2="400" stroke="#64748b" stroke-width="4" marker-end="url(#arrow)"/><line x1="1410" y1="400" x2="1440" y2="400" stroke="#64748b" stroke-width="4" marker-end="url(#arrow)"/><text x="890" y="535" font-size="20" fill="#64748b">Kein NodePort · kein LoadBalancer · kein öffentlicher K8s-API-Port nötig</text>
  <text x="60" y="610" font-size="30" font-weight="800" fill="#0f172a">Schritte</text>
  <g><rect x="60" y="640" width="350" height="78" rx="18" fill="#fff" stroke="#cbd5e1" stroke-width="2"/><rect x="60" y="640" width="8" height="78" rx="4" fill="#2563eb"/><text x="82" y="676" font-size="26" font-weight="700" fill="#0f172a">1 · VM</text><text x="82" y="704" font-size="22" fill="#334155">Debian 13 auf Proxmox</text></g><g><rect x="430" y="640" width="350" height="78" rx="18" fill="#fff" stroke="#cbd5e1" stroke-width="2"/><rect x="430" y="640" width="8" height="78" rx="4" fill="#2563eb"/><text x="452" y="676" font-size="26" font-weight="700" fill="#0f172a">2 · K3s</text><text x="452" y="704" font-size="22" fill="#334155">Traefik/ServiceLB aus</text></g><g><rect x="60" y="735" width="350" height="78" rx="18" fill="#fff" stroke="#cbd5e1" stroke-width="2"/><rect x="60" y="735" width="8" height="78" rx="4" fill="#2563eb"/><text x="82" y="771" font-size="26" font-weight="700" fill="#0f172a">3 · Registry</text><text x="82" y="799" font-size="22" fill="#334155">GHCR Pull Secret</text></g><g><rect x="430" y="735" width="350" height="78" rx="18" fill="#fff" stroke="#cbd5e1" stroke-width="2"/><rect x="430" y="735" width="8" height="78" rx="4" fill="#2563eb"/><text x="452" y="771" font-size="26" font-weight="700" fill="#0f172a">4–6 · App + Tunnel</text><text x="452" y="799" font-size="22" fill="#334155">intern testen → cloudflared → public</text></g>
  <text x="840" y="610" font-size="30" font-weight="800" fill="#0f172a">To-dos</text>
  <g><rect x="840" y="640" width="330" height="78" rx="18" fill="#fff" stroke="#cbd5e1" stroke-width="2"/><rect x="840" y="640" width="8" height="78" rx="4" fill="#16a34a"/><text x="862" y="676" font-size="26" font-weight="700" fill="#0f172a">✓ Staging markieren</text><text x="862" y="704" font-size="22" fill="#334155">in Teil II umgesetzt</text></g><g><rect x="1190" y="640" width="350" height="78" rx="18" fill="#fff" stroke="#cbd5e1" stroke-width="2"/><rect x="1190" y="640" width="8" height="78" rx="4" fill="#16a34a"/><text x="1212" y="676" font-size="26" font-weight="700" fill="#0f172a">✓ GitOps ergänzen</text><text x="1212" y="704" font-size="22" fill="#334155">Flux + Kustomize in Teil II</text></g><g><rect x="840" y="735" width="330" height="78" rx="18" fill="#fff" stroke="#cbd5e1" stroke-width="2"/><rect x="840" y="735" width="8" height="78" rx="4" fill="#16a34a"/><text x="862" y="771" font-size="26" font-weight="700" fill="#0f172a">✓ Promotion absichern</text><text x="862" y="799" font-size="22" fill="#334155">verified candidate in Teil II</text></g><g><rect x="1190" y="735" width="350" height="78" rx="18" fill="#fff" stroke="#cbd5e1" stroke-width="2"/><rect x="1190" y="735" width="8" height="78" rx="4" fill="#f97316"/><text x="1212" y="771" font-size="26" font-weight="700" fill="#0f172a">→ Hardening</text><text x="1212" y="799" font-size="22" fill="#334155">Secrets, Backup, Monitoring</text></g>
  <rect x="60" y="842" width="1480" height="1" fill="#cbd5e1"/>
  <text x="60" y="878" font-size="22" fill="#64748b">Stand nach Teil I: Staging erreichbar. GitOps und Hardening folgen in Teil II und III.</text>
</svg>