<svg xmlns="http://www.w3.org/2000/svg" width="1600" height="900" viewBox="0 0 1600 900">
  <defs><marker id="arrow" viewBox="0 0 10 10" refX="9" refY="5" markerWidth="8" markerHeight="8" orient="auto-start-reverse"><path d="M 0 0 L 10 5 L 0 10 z" fill="#64748b"/></marker></defs>
  <rect width="1600" height="900" fill="#f8fafc"/>
  <text x="60" y="70" font-size="46" font-weight="800" fill="#0f172a">K3s auf Proxmox – Teil II</text>
  <text x="60" y="112" font-size="25" fill="#475569">GitOps mit Flux und verifiziertem Staging</text>
  <rect x="60" y="145" width="1480" height="82" rx="20" fill="#fff7ed" stroke="#fdba74" stroke-width="2"/>
  <text x="90" y="180" font-size="24" font-weight="800" fill="#c2410c">Ziel</text>
  <text x="90" y="210" font-size="25" fill="#334155">Manuelle Deployments durch einen nachvollziehbaren GitOps-Pfad ersetzen; Production bleibt bewusst manuell.</text>
  <text x="60" y="274" font-size="30" font-weight="800" fill="#0f172a">Architektur</text>
  <g><rect x="60" y="315" width="180" height="170" rx="18" fill="#fff" stroke="#cbd5e1" stroke-width="2"/><rect x="60" y="315" width="8" height="170" rx="4" fill="#ff5a00"/><text x="82" y="351" font-size="26" font-weight="700" fill="#0f172a">Änderung</text><text x="82" y="379" font-size="22" fill="#334155">feature/*</text><text x="82" y="407" font-size="22" fill="#334155">obsidian/*</text></g><g><rect x="275" y="315" width="180" height="170" rx="18" fill="#fff" stroke="#cbd5e1" stroke-width="2"/><rect x="275" y="315" width="8" height="170" rx="4" fill="#ff5a00"/><text x="297" y="351" font-size="26" font-weight="700" fill="#0f172a">PR</text><text x="297" y="379" font-size="22" fill="#334155">nach staging</text><text x="297" y="407" font-size="22" fill="#334155">CI muss grün sein</text></g><g><rect x="490" y="315" width="200" height="170" rx="18" fill="#fff" stroke="#cbd5e1" stroke-width="2"/><rect x="490" y="315" width="8" height="170" rx="4" fill="#ff5a00"/><text x="512" y="351" font-size="26" font-weight="700" fill="#0f172a">Actions</text><text x="512" y="379" font-size="22" fill="#334155">Blog + Search</text><text x="512" y="407" font-size="22" fill="#334155">bauen</text></g><g><rect x="725" y="315" width="180" height="170" rx="18" fill="#fff" stroke="#cbd5e1" stroke-width="2"/><rect x="725" y="315" width="8" height="170" rx="4" fill="#ff5a00"/><text x="747" y="351" font-size="26" font-weight="700" fill="#0f172a">GHCR</text><text x="747" y="379" font-size="22" fill="#334155">Git-SHA</text><text x="747" y="407" font-size="22" fill="#334155">Tags</text></g><g><rect x="940" y="315" width="200" height="170" rx="18" fill="#fff" stroke="#cbd5e1" stroke-width="2"/><rect x="940" y="315" width="8" height="170" rx="4" fill="#ff5a00"/><text x="962" y="351" font-size="26" font-weight="700" fill="#0f172a">Kustomize</text><text x="962" y="379" font-size="22" fill="#334155">SHA-Pins</text><text x="962" y="407" font-size="22" fill="#334155">Bot-Commit</text></g><g><rect x="1175" y="315" width="170" height="170" rx="18" fill="#fff" stroke="#cbd5e1" stroke-width="2"/><rect x="1175" y="315" width="8" height="170" rx="4" fill="#ff5a00"/><text x="1197" y="351" font-size="26" font-weight="700" fill="#0f172a">Flux</text><text x="1197" y="379" font-size="22" fill="#334155">reconcile</text><text x="1197" y="407" font-size="22" fill="#334155">pull-based</text></g><g><rect x="1380" y="315" width="160" height="170" rx="18" fill="#fff" stroke="#cbd5e1" stroke-width="2"/><rect x="1380" y="315" width="8" height="170" rx="4" fill="#ff5a00"/><text x="1402" y="351" font-size="26" font-weight="700" fill="#0f172a">K3s</text><text x="1402" y="379" font-size="22" fill="#334155">Staging</text><text x="1402" y="407" font-size="22" fill="#334155">Proxmox</text></g><line x1="240" y1="400" x2="275" y2="400" stroke="#64748b" stroke-width="4" marker-end="url(#arrow)"/><line x1="455" y1="400" x2="490" y2="400" stroke="#64748b" stroke-width="4" marker-end="url(#arrow)"/><line x1="690" y1="400" x2="725" y2="400" stroke="#64748b" stroke-width="4" marker-end="url(#arrow)"/><line x1="905" y1="400" x2="940" y2="400" stroke="#64748b" stroke-width="4" marker-end="url(#arrow)"/><line x1="1140" y1="400" x2="1175" y2="400" stroke="#64748b" stroke-width="4" marker-end="url(#arrow)"/><line x1="1345" y1="400" x2="1380" y2="400" stroke="#64748b" stroke-width="4" marker-end="url(#arrow)"/><path d="M1460 485 V540 H1040" fill="none" stroke="#64748b" stroke-width="4" marker-end="url(#arrow)"/>
<g><rect x="840" y="510" width="200" height="72" rx="18" fill="#fff" stroke="#cbd5e1" stroke-width="2"/><rect x="840" y="510" width="8" height="72" rx="4" fill="#16a34a"/><text x="862" y="546" font-size="26" font-weight="700" fill="#0f172a">Public Gate</text><text x="862" y="574" font-size="22" fill="#334155">health + build-info</text></g>
<line x1="1040" y1="546" x2="1120" y2="546" stroke="#64748b" stroke-width="4" marker-end="url(#arrow)"/>
<g><rect x="1120" y="510" width="240" height="72" rx="18" fill="#fff" stroke="#cbd5e1" stroke-width="2"/><rect x="1120" y="510" width="8" height="72" rx="4" fill="#16a34a"/><text x="1142" y="546" font-size="26" font-weight="700" fill="#0f172a">verified candidate</text><text x="1142" y="574" font-size="22" fill="#334155">promotion/staging-verified</text></g>
<line x1="1360" y1="546" x2="1435" y2="546" stroke="#64748b" stroke-width="4" marker-end="url(#arrow)"/>
<g><rect x="1435" y="510" width="120" height="72" rx="18" fill="#fff" stroke="#cbd5e1" stroke-width="2"/><rect x="1435" y="510" width="8" height="72" rx="4" fill="#f97316"/><text x="1457" y="546" font-size="26" font-weight="700" fill="#0f172a">main</text><text x="1457" y="574" font-size="22" fill="#334155">manuell</text></g>
  <text x="60" y="610" font-size="30" font-weight="800" fill="#0f172a">Schritte</text>
  <g><rect x="60" y="640" width="350" height="78" rx="18" fill="#fff" stroke="#cbd5e1" stroke-width="2"/><rect x="60" y="640" width="8" height="78" rx="4" fill="#16a34a"/><text x="82" y="676" font-size="26" font-weight="700" fill="#0f172a">1 · Merge</text><text x="82" y="704" font-size="22" fill="#334155">PR nach staging</text></g><g><rect x="430" y="640" width="350" height="78" rx="18" fill="#fff" stroke="#cbd5e1" stroke-width="2"/><rect x="430" y="640" width="8" height="78" rx="4" fill="#16a34a"/><text x="452" y="676" font-size="26" font-weight="700" fill="#0f172a">2 · Build</text><text x="452" y="704" font-size="22" fill="#334155">Images + SHA-Pins</text></g><g><rect x="60" y="735" width="350" height="78" rx="18" fill="#fff" stroke="#cbd5e1" stroke-width="2"/><rect x="60" y="735" width="8" height="78" rx="4" fill="#16a34a"/><text x="82" y="771" font-size="26" font-weight="700" fill="#0f172a">3 · Flux</text><text x="82" y="799" font-size="22" fill="#334155">Sollzustand anwenden</text></g><g><rect x="430" y="735" width="350" height="78" rx="18" fill="#fff" stroke="#cbd5e1" stroke-width="2"/><rect x="430" y="735" width="8" height="78" rx="4" fill="#16a34a"/><text x="452" y="771" font-size="26" font-weight="700" fill="#0f172a">4–6 · Gate + Promotion</text><text x="452" y="799" font-size="22" fill="#334155">öffentlich prüfen → Candidate → main</text></g>
  <text x="840" y="610" font-size="30" font-weight="800" fill="#0f172a">To-dos</text>
  <g><rect x="840" y="640" width="330" height="78" rx="18" fill="#fff" stroke="#cbd5e1" stroke-width="2"/><rect x="840" y="640" width="8" height="78" rx="4" fill="#f97316"/><text x="862" y="676" font-size="26" font-weight="700" fill="#0f172a">Branch-Schutz</text><text x="862" y="704" font-size="22" fill="#334155">Ruleset wirklich erzwingen</text></g><g><rect x="1190" y="640" width="350" height="78" rx="18" fill="#fff" stroke="#cbd5e1" stroke-width="2"/><rect x="1190" y="640" width="8" height="78" rx="4" fill="#f97316"/><text x="1212" y="676" font-size="26" font-weight="700" fill="#0f172a">Digest-Pins</text><text x="1212" y="704" font-size="22" fill="#334155">SHA-Tag → image@sha256</text></g><g><rect x="840" y="735" width="330" height="78" rx="18" fill="#fff" stroke="#cbd5e1" stroke-width="2"/><rect x="840" y="735" width="8" height="78" rx="4" fill="#f97316"/><text x="862" y="771" font-size="26" font-weight="700" fill="#0f172a">Search-Gate</text><text x="862" y="799" font-size="22" fill="#334155">Search separat verifizieren</text></g><g><rect x="1190" y="735" width="350" height="78" rx="18" fill="#fff" stroke="#cbd5e1" stroke-width="2"/><rect x="1190" y="735" width="8" height="78" rx="4" fill="#16a34a"/><text x="1212" y="771" font-size="26" font-weight="700" fill="#0f172a">✓ Secrets</text><text x="1212" y="799" font-size="22" fill="#334155">SOPS/age in Teil III</text></g>
  <rect x="60" y="842" width="1480" height="1" fill="#cbd5e1"/>
  <text x="60" y="878" font-size="22" fill="#64748b">Stand nach Teil II: Staging rollt automatisch aus; nur ein verifizierter Candidate darf Richtung Production.</text>
</svg>